<svg width="96" height="96" viewBox="0 0 96 96" fill="none" xmlns="http://www.w3.org/2000/svg">
<g clip-path="url(#clip0_3_2)">
<path d="M38.664 44.689C38.664 44.689 47.729 44.016 47.729 33.383C47.729 22.751 40.312 17.564 30.916 17.564H13.622H13.114H0V76.978H13.114H13.622H30.916C30.916 76.978 49.789 77.575 49.789 59.442C49.79 59.442 50.613 44.689 38.664 44.689ZM13.622 28.125H28.691H30.917C30.917 28.125 35.12 28.125 35.12 34.306C35.12 40.487 32.647 41.383 29.845 41.383H13.622V28.125ZM30.119 66.42H13.622V50.541H30.916C30.916 50.541 37.18 50.461 37.18 58.701C37.18 65.572 32.599 66.351 30.119 66.42Z" fill="white"/>
<path d="M86.694 21.064H62.18V28.381H86.694V21.064Z" fill="white"/>
<path d="M74.961 32.682C52.113 32.682 52.133 55.508 52.133 55.508C52.133 55.508 50.567 78.221 74.962 78.221C74.962 78.221 95.293 79.383 95.293 62.42H84.837C84.837 62.42 85.186 68.811 75.311 68.811C75.311 68.811 64.856 69.51 64.856 58.471H95.641C95.641 58.471 99.009 32.682 74.961 32.682ZM84.255 50.541H64.738C64.738 50.541 66.015 41.383 75.193 41.383C84.372 41.382 84.255 50.541 84.255 50.541Z" fill="white"/>
</g>
<defs>
<clipPath id="clip0_3_2">
<rect width="95.802" height="95.802" fill="white"/>
</clipPath>
</defs>
</svg>
