<svg width="96" height="96" viewBox="0 0 96 96" fill="none" xmlns="http://www.w3.org/2000/svg">
<path d="M26.2059 33.4077H9.77526C9.04604 33.4077 8.45517 33.9989 8.45517 34.7278V87.5124C8.45517 88.2416 9.04604 88.8325 9.77526 88.8325H26.2059C26.9351 88.8325 27.526 88.2416 27.526 87.5124V34.7278C27.526 33.9989 26.9351 33.4077 26.2059 33.4077Z" fill="white"/>
<path d="M17.9965 7.16721C12.0181 7.16721 7.15436 12.0257 7.15436 17.9975C7.15436 23.972 12.0181 28.8323 17.9965 28.8323C23.9702 28.8323 28.83 23.9717 28.83 17.9975C28.8303 12.0257 23.9702 7.16721 17.9965 7.16721Z" fill="white"/>
<path d="M67.9984 32.0958C61.3993 32.0958 56.521 34.9327 53.5622 38.1561V34.7278C53.5622 33.9989 52.9713 33.4077 52.2421 33.4077H36.5069C35.7776 33.4077 35.1868 33.9989 35.1868 34.7278V87.5124C35.1868 88.2417 35.7776 88.8325 36.5069 88.8325H52.9016C53.6308 88.8325 54.2217 88.2417 54.2217 87.5124V61.3963C54.2217 52.5958 56.6121 49.1672 62.7468 49.1672C69.4281 49.1672 69.959 54.6636 69.959 61.8491V87.5127C69.959 88.2419 70.5499 88.8328 71.2791 88.8328H87.6799C88.4091 88.8328 89 88.2419 89 87.5127V58.5594C89 45.4734 86.5048 32.0958 67.9984 32.0958Z" fill="white"/>
</svg>
